<svg xmlns="http://www.w3.org/2000/svg" xmlns:xlink="http://www.w3.org/1999/xlink" version="1.1" x="0px" y="0px" viewBox="0 0 100 100" enable-background="new 0 0 100 100" xml:space="preserve"><polygon points="29.216,33.744 29.216,43.31 18.439,43.31 18.439,50.333 29.216,50.333 29.216,60.143 46.291,46.943 "></polygon><polygon points="71.356,52.079 71.356,61.646 82.134,61.646 82.134,68.668 71.356,68.668 71.356,78.477 54.282,65.278 "></polygon><path d="M75.686,22.168H53.83L36.33,3.833H18.802c-8.025,0-14.531,6.506-14.531,14.531v45.603c0,8.025,6.506,14.531,14.531,14.531  h24.582c0.082,0,0.161-0.011,0.242-0.013v3.816c0,8.024,6.506,14.531,14.531,14.531h24.582c8.025,0,14.531-6.507,14.531-14.531  v-37.52L75.686,22.168z M19.166,71.404c-4.012,0-7.266-3.253-7.266-7.266V18.486c0-4.013,3.253-7.266,7.266-7.266h13.441  c2.006,0,3.633,1.626,3.633,3.633v6.877c0,2.006,1.626,3.633,3.633,3.633h7.266c2.006,0,3.633,1.626,3.633,3.633v26.132v9.011  c0,4.013-3.253,7.266-7.266,7.266H19.166z M90.126,82.473c0,4.014-3.253,7.266-7.266,7.266H58.521c-4.013,0-7.266-3.252-7.266-7.266  v-6.302c4.003-2.589,6.659-7.082,6.659-12.203v-34.38c0.2-0.017,0.401-0.033,0.606-0.033h13.44c2.007,0,3.633,1.626,3.633,3.633  v6.878c0,2.006,1.627,3.633,3.633,3.633h7.266c2.007,0,3.633,1.626,3.633,3.633V82.473z"></path></svg>